# xmcd
#
# Track frame offsets:
#	150
#	37282
#	76969
#	111237
#
# Disc length: 2055 seconds
#
# Revision: 1
# Processed by: cddbd v1.5.2PL0 Copyright (c) Steve Scherf et al.
# Submitted via: audiograbber 1.83.01
#
DISCID=2f080504
DTITLE=Grateful Dead - 80-04-01 Capitol Theatre, Passaic NJ
DYEAR=1900
DGENRE=
TTITLE0=Space
TTITLE1=Stella Blue
TTITLE2=Around and Around
TTITLE3=Shakedown Street
EXTD=
EXTT0=
EXTT1=
EXTT2=
EXTT3=
PLAYORDER=
